<?xml version="1.0" encoding="utf-8"?>
<!-- Generator: Adobe Illustrator 21.0.2, SVG Export Plug-In . SVG Version: 6.00 Build 0)  -->
<svg version="1.1" id="Layer_1" xmlns="http://www.w3.org/2000/svg" xmlns:xlink="http://www.w3.org/1999/xlink" x="0px" y="0px"
	 viewBox="0 0 512 512" style="enable-background:new 0 0 512 512;" xml:space="preserve">
<g>
	<path d="M492.1,96.2c-53,0-106.3,0-159.4,0c-84.6,0-169.2,0-254,0c-19.5,0-38.9,0-58.2,0c-3.6,0-6.7,0.8-9.3,2.1
		c-2.1,1-4.1,2.3-5.7,3.9c-8.2,8.4-7,20.7,0.2,29.1c26.6,31.3,53,62.7,79.7,94c42.4,50,84.6,100,127,149.9
		c9.8,11.5,19.5,22.9,29.3,34.6c6.8,8,22.3,8,28.9,0c26.6-31.3,53-62.7,79.7-94c42.4-50,84.6-100,127-149.9
		c9.8-11.5,19.5-22.9,29.3-34.6C517.7,118.1,511,96.2,492.1,96.2z"/>
</g>
</svg>
