<?xml version="1.0" encoding="utf-8"?>
<!-- Generator: Adobe Illustrator 23.0.6, SVG Export Plug-In . SVG Version: 6.00 Build 0)  -->
<svg width="90px" height="90px" version="1.1" id="Layer_1" xmlns="http://www.w3.org/2000/svg" xmlns:xlink="http://www.w3.org/1999/xlink" x="0px" y="0px"
	 viewBox="0 0 90 90" style="enable-background:new 0 0 90 90;" xml:space="preserve">
<style type="text/css">
	.st0{opacity:0.5;fill:#1C1B1B;}
</style>
<title>Group</title>
<desc>Created with Sketch.</desc>
<path class="st0" d="M43,24.7c0-8.8-7.2-16-16-16s-16,7.2-16,16c0,3.7,1.3,7,3.3,9.7C14.2,35,14,35.6,14,36.3v8.8
	c-1.7-2.7-4.6-4.4-7.9-4.4c-2,0-3.7,1.7-3.7,3.7c0,0.7,0.2,1.4,0.6,2l1.5,2.2c0.6,0.8,0.9,1.8,1,2.8l1,8.2c0.2,1.3,0.6,2.4,1.4,3.5
	l3.1,4.2v2.4H8.2V90h31.9V69.7h-2.9v-2.6l2.1-4.3c0.5-1,0.8-2.1,0.8-3.2V36.3c0-0.7-0.2-1.3-0.4-1.9C41.8,31.7,43,28.3,43,24.7
	L43,24.7z M27.1,11.6c7.2,0,13.1,5.9,13.1,13.1s-5.9,13.1-13.1,13.1S14,31.9,14,24.7S19.9,11.6,27.1,11.6z M37.2,72.6v2.9H11.1v-2.9
	H37.2z M11.1,87.1v-8.7h26.1v8.7H11.1z M36.8,61.5l-2.4,4.9v3.2H14v-3.4l-3.7-5c-0.5-0.6-0.7-1.3-0.8-2.1l-1-8.2
	c-0.2-1.4-0.7-2.8-1.5-4l-1.5-2.2c-0.1-0.1-0.1-0.3-0.1-0.4c0-0.4,0.3-0.8,0.8-0.8c3.1,0,5.7,2.2,6.3,5.2l1.8,9.1l0.9,0.2
	c2.8,0.7,4.7,3.2,4.7,6v2.7h2.9V64c0-3.8-2.3-7.1-5.8-8.5V37c0.9,0.7,1.9,1.4,2.9,1.9v14.8h2.9V40c0.9,0.3,1.9,0.5,2.9,0.5v13.1h2.9
	V40.6c1-0.1,2-0.3,2.9-0.5v13.7h2.9V38.9c1-0.5,2-1.2,2.9-1.9v22.6C37.2,60.3,37.1,60.9,36.8,61.5z"/>
<path class="st0" d="M27.1,29c-0.8,0-1.5-0.7-1.5-1.5h-2.9c0,1.9,1.2,3.5,2.9,4.1v3.2h2.9v-2.9h2.9v-4.4c0-2.4-2-4.4-4.4-4.4
	c-0.8,0-1.5-0.7-1.5-1.5v-1.5h1.5c0.8,0,1.5,0.7,1.5,1.5h2.9c0-1.9-1.2-3.5-2.9-4.1v-3.2h-2.9v2.9h-2.9v4.4c0,2.4,2,4.4,4.4,4.4
	c0.8,0,1.5,0.7,1.5,1.5V29H27.1z"/>
<path class="st0" d="M86,43.6l-1.5-2.2c-0.6-0.8-0.9-1.8-1-2.8l-1-8.2c-0.2-1.3-0.6-2.4-1.4-3.5l-3.1-4.2v-2.4h2.9V0H48.8v20.3h2.9
	v2.6l-2.1,4.3c-0.5,1-0.8,2.1-0.8,3.2v23.3c0,0.3,0,0.6,0.1,0.9C45.3,58,43,62.8,43,68.2c0,10.4,8.5,18.9,18.9,18.9
	s18.9-8.5,18.9-18.9c0-5.4-2.3-10.2-5.9-13.7c0.1-0.3,0.1-0.6,0.1-0.9v-8.8c1.7,2.7,4.6,4.4,7.9,4.4c2,0,3.7-1.7,3.7-3.7
	C86.6,44.9,86.4,44.2,86,43.6z M77.9,2.9v14.5H51.7v-5.8h11.6V8.7H51.7V2.9H77.9z M77.9,68.2c0,8.8-7.2,16-16,16s-16-7.2-16-16
	c0-8.8,7.2-16,16-16S77.9,59.4,77.9,68.2z M82.9,46.5c-3.1,0-5.7-2.2-6.3-5.2l-1.8-9.1L73.9,32c-2.8-0.7-4.7-3.2-4.7-6v-2.7h-2.9V26
	c0,3.8,2.3,7.1,5.8,8.5v17.9c-0.9-0.6-1.9-1.1-2.9-1.5V36.3h-2.9v13.6c-0.9-0.2-1.9-0.4-2.9-0.5V36.3h-2.9v13.1
	c-1,0.1-2,0.2-2.9,0.5V36.3h-2.9v14.5c-1,0.4-2,0.9-2.9,1.5V30.4c0-0.7,0.2-1.3,0.5-1.9l2.4-4.9v-3.2H75v3.4l3.7,5
	c0.5,0.6,0.7,1.3,0.8,2.1l1,8.2c0.2,1.4,0.7,2.8,1.5,4l1.5,2.2c0.1,0.1,0.1,0.3,0.1,0.4C83.7,46.1,83.3,46.5,82.9,46.5L82.9,46.5z"
	/>
<path class="st0" d="M52.1,75.9l17.4-17.4l2.1,2.1L54.2,78L52.1,75.9z"/>
<path class="st0" d="M67.7,69.7c-2.4,0-4.4,2-4.4,4.4c0,2.4,2,4.4,4.4,4.4c2.4,0,4.4-2,4.4-4.4C72.1,71.6,70.1,69.7,67.7,69.7z
	 M67.7,75.5c-0.8,0-1.5-0.7-1.5-1.5s0.7-1.5,1.5-1.5c0.8,0,1.5,0.7,1.5,1.5S68.5,75.5,67.7,75.5z"/>
<path class="st0" d="M56.1,66.8c2.4,0,4.4-2,4.4-4.4s-2-4.4-4.4-4.4s-4.4,2-4.4,4.4S53.7,66.8,56.1,66.8z M56.1,61
	c0.8,0,1.5,0.7,1.5,1.5c0,0.8-0.7,1.5-1.5,1.5c-0.8,0-1.5-0.7-1.5-1.5C54.6,61.6,55.3,61,56.1,61z"/>
<path class="st0" d="M70.6,14.5c2.4,0,4.4-2,4.4-4.4s-2-4.4-4.4-4.4s-4.4,2-4.4,4.4S68.2,14.5,70.6,14.5z M70.6,8.7
	c0.8,0,1.5,0.7,1.5,1.5c0,0.8-0.7,1.5-1.5,1.5s-1.5-0.7-1.5-1.5C69.2,9.4,69.8,8.7,70.6,8.7z"/>
</svg>
