<?xml version="1.0" encoding="UTF-8"?>
<svg width="90px" height="90px" viewBox="0 0 90 90" version="1.1" xmlns="http://www.w3.org/2000/svg" xmlns:xlink="http://www.w3.org/1999/xlink">
    <!-- Generator: Sketch 50.2 (55047) - http://www.bohemiancoding.com/sketch -->
    <title>Group</title>
    <desc>Created with Sketch.</desc>
    <defs></defs>
    <g id="Page-4" stroke="none" stroke-width="1" fill="none" fill-rule="evenodd" fill-opacity="0.5">
        <g id="homepage" transform="translate(-408.000000, -1040.000000)" fill="#1C1B1B" fill-rule="nonzero">
            <g id="ENERGY" transform="translate(40.000000, 928.000000)">
                <g id="EPCI" transform="translate(40.000000, 112.000000)">
                    <g id="Group" transform="translate(328.000000, 0.000000)">
                        <g id="Shape">
                            <path d="M50.715825,0.621825 C50.4340381,0.231196332 49.9816581,-0.000170168287 49.5,-2.32625763e-15 L40.5,-2.32625763e-15 C40.0183419,-0.000170168287 39.5659619,0.231196332 39.284175,0.621825 L0.284175,54.621825 C0.099472835,54.87739 3.5547297e-05,55.1846773 1.97141384e-15,55.5 L1.97141384e-15,88.5 C-0.000103483041,88.8978564 0.157898546,89.2794474 0.43922555,89.5607745 C0.720552552,89.8421014 1.10214355,90.0001035 1.5,90 L88.5,90 C88.8978564,90.0001035 89.2794474,89.8421014 89.5607745,89.5607745 C89.8421015,89.2794474 90.0001035,88.8978564 90,88.5 L90,55.5 C89.9999644,55.1846773 89.9005272,54.87739 89.715825,54.621825 L50.715825,0.621825 Z M87,81 L84,81 L84,63 L87,63 L87,81 Z M62.241675,81 L81,68.768835 L81,81 L62.241675,81 Z M50.74449,81 L78.33948,63 L81,63 L81,65.187285 L56.74887,81 L50.74449,81 Z M33.25113,81 L9,65.187285 L9,63 L11.66052,63 L39.255525,81 L33.25113,81 Z M3,81 L3,63 L6,63 L6,81 L3,81 Z M9,68.768835 L27.758325,81 L9,81 L9,68.768835 Z M40.5,78.23136 L17.1495,63 L40.5,63 L40.5,78.23136 Z M43.5,63 L46.5,63 L46.5,81 L43.5,81 L43.5,63 Z M72.8505,63 L49.5,78.23136 L49.5,63 L72.8505,63 Z M3,55.98486 L41.26758,3 L48.73242,3 L87,55.98486 L87,60 L3,60 L3,55.98486 Z M87,87 L3,87 L3,84 L87,84 L87,87 Z"></path>
                            <path d="M8.894535,57 L42,57 C42.3978564,57.0001035 42.7794474,56.8421014 43.0607745,56.5607745 C43.3421015,56.2794474 43.5001035,55.8978564 43.5,55.5 L43.5,9.65991 C43.5,9.61899 43.479945,9.584745 43.47675,9.54465 C43.4367435,9.15360779 43.2518221,8.79170079 42.95838,8.530155 C42.9279,8.50416 42.91188,8.467995 42.87888,8.4441 C42.8310879,8.41903292 42.7819028,8.39671656 42.731565,8.37726 C42.5560686,8.27230674 42.3589752,8.20869846 42.155235,8.19126 C42.104121,8.17789762 42.0522936,8.16743097 42,8.15991 C41.960175,8.15991 41.926755,8.1795 41.887755,8.18253 C41.4950494,8.22174599 41.1315121,8.40740524 40.86951,8.70255 C40.843785,8.73294 40.8078,8.74887 40.78419,8.78175 L7.67871,54.621825 C7.34866719,55.0783848 7.3023483,55.6814014 7.55879232,56.1830104 C7.81523634,56.6846194 8.33117448,57.0001863 8.894535,57 Z M40.5,14.298705 L40.5,54 L11.82861,54 L40.5,14.298705 Z"></path>
                            <path d="M48,57 L81.105465,57 C81.6688256,57.0001863 82.1847636,56.6846195 82.4412076,56.1830105 C82.6976517,55.6814015 82.6513327,55.0783848 82.32129,54.621825 L49.215825,8.781735 C49.19229,8.74905 49.1565,8.7333 49.130865,8.70309 C48.8687587,8.4077031 48.5050158,8.22186861 48.112065,8.18259 C48.073065,8.17959 48.039735,8.15997 48,8.15997 C47.9477862,8.16747494 47.8960386,8.17792662 47.845005,8.191275 C47.6414706,8.20830588 47.4445407,8.27172737 47.26932,8.376675 C47.2186333,8.396259 47.1691384,8.41879767 47.12109,8.444175 C47.08809,8.46807 47.072115,8.504175 47.04159,8.53023 C46.7481091,8.79178358 46.5631821,9.15373403 46.52322,9.544815 C46.52001,9.58482 46.49997,9.619155 46.49997,9.659985 L46.49997,55.5 C46.4998665,55.8978617 46.6578726,56.2794572 46.9392061,56.560785 C47.2205397,56.842113 47.6021383,57.0001115 48,57 Z M49.5,54 L49.5,14.298705 L78.17139,54 L49.5,54 Z"></path>
                        </g>
                    </g>
                </g>
            </g>
        </g>
    </g>
</svg>