<?xml version="1.0" encoding="UTF-8"?>
<svg width="90px" height="90px" viewBox="0 0 90 90" version="1.1" xmlns="http://www.w3.org/2000/svg" xmlns:xlink="http://www.w3.org/1999/xlink">
    <!-- Generator: Sketch 50.2 (55047) - http://www.bohemiancoding.com/sketch -->
    <title>Group</title>
    <desc>Created with Sketch.</desc>
    <defs></defs>
    <g id="Page-4" stroke="none" stroke-width="1" fill="none" fill-rule="evenodd" fill-opacity="0.5">
        <g id="homepage" transform="translate(-80.000000, -1040.000000)" fill="#1C1B1B" fill-rule="nonzero">
            <g id="ENERGY" transform="translate(40.000000, 928.000000)">
                <g id="EPCI" transform="translate(40.000000, 112.000000)">
                    <g id="Group">
                        <g id="Shape">
                            <path d="M7.42268041,89.4372148 L66.7936132,89.4372148 L66.8099431,89.4387054 L66.8229773,89.4372148 L78.6804124,89.4372148 C81.1389599,89.4345202 83.131337,87.4339776 83.1340206,84.9653541 L83.1340206,50.1350295 L88.8938425,34.2464188 C89.4490501,32.6994315 88.6555094,30.99267 87.1179068,30.4267044 L83.1340206,28.9708306 L83.1340206,13.4155822 C83.131337,10.9469587 81.1389599,8.94641609 78.6804124,8.94372148 L30.5004025,8.94372148 L29.5790845,3.6974388 C29.1520867,1.26483794 26.8422247,-0.359802446 24.4194606,0.0684194693 L21.4967802,0.585187696 C19.0735743,1.01413038 17.4554569,3.33426793 17.8825732,5.76741842 L18.4403579,8.94372148 L14.8453608,8.94372148 L14.8453608,7.45310123 C14.8453608,3.33686708 11.5221136,-1.07185582e-15 7.42268041,-1.32390572e-15 C3.32324722,-1.57594884e-15 5.02035775e-16,3.33686708 0,7.45310123 L0,81.9841136 C0.00481827042,86.098342 3.32524467,89.4323768 7.42268041,89.4372148 Z M2.96907216,81.9841136 C2.96907216,79.5143732 4.96302049,77.5122528 7.42268041,77.5122528 C9.88234033,77.5122528 11.8762887,79.5143732 11.8762887,81.9841136 C11.8762887,84.453854 9.88234033,86.4559743 7.42268041,86.4559743 C4.96413295,86.4532797 2.97175578,84.4527371 2.96907216,81.9841136 Z M80.1649485,84.9653541 C80.1643916,85.7883692 79.5000682,86.4554152 78.6804124,86.4559743 L69.967106,86.4559743 L80.1649485,58.3252424 L80.1649485,84.9653541 Z M85.0876701,36.0299907 L85.0867645,36.0296329 C84.5883884,35.8471409 84.0309006,35.9456283 83.6244865,36.2879632 C83.2180725,36.6302982 83.0245411,37.1644171 83.1168579,37.6889453 C83.2091748,38.2134736 83.5733002,38.6486388 84.0719505,38.8303742 L84.0724998,38.8305531 L83.0565872,41.6329191 L83.0556816,41.6325614 C82.5573055,41.4500694 81.9998177,41.5485568 81.5934037,41.8908917 C81.1869896,42.2332267 80.9934582,42.7673456 81.085775,43.2918738 C81.1780919,43.816402 81.5422173,44.2515673 82.0408676,44.4333027 L82.0414169,44.4334816 L81.2306524,46.6702318 L81.0246136,46.5949853 C80.5262375,46.4124932 79.9687496,46.5109806 79.5623356,46.8533156 C79.1559216,47.1956505 78.9623902,47.7297694 79.054707,48.2542977 C79.1470239,48.7788259 79.5111493,49.2139912 80.0097996,49.3957266 L80.2153039,49.4708836 L79.1995843,52.2731603 L78.9935456,52.1979137 C78.2234989,51.9172668 77.3726208,52.3161925 77.0925374,53.0891827 C76.812454,53.8621731 77.2091083,54.7168396 77.9787315,54.998655 L78.184414,55.0737078 L77.1686944,57.8760738 L76.9624627,57.8008273 C76.4640865,57.6183353 75.9065987,57.7168227 75.5001847,58.0591576 C75.0937707,58.4014926 74.9002393,58.9356115 74.992556,59.4601397 C75.084873,59.984668 75.4489983,60.4198332 75.9476487,60.6015686 L76.1535093,60.6766213 L75.1375967,63.4789874 L74.9313649,63.4037409 C74.1613183,63.1230939 73.3104402,63.5220197 73.0303568,64.2950099 C72.7502734,65.0680002 73.1469276,65.9226667 73.9165509,66.2044822 L74.1224115,66.2795349 L73.106499,69.0815432 L72.9017221,69.0066694 C72.1316754,68.7260224 71.2807973,69.1249481 71.0007139,69.8979383 C70.7206305,70.6709287 71.1172848,71.5255952 71.886908,71.8074106 L72.0913287,71.8821056 L71.0756091,74.6844717 L70.870654,74.6095978 C70.3722779,74.4271058 69.8147901,74.5255932 69.408376,74.8679281 C69.001962,75.2102631 68.8084306,75.744382 68.9007474,76.2689102 C68.9930643,76.7934385 69.3571897,77.2286037 69.85584,77.4103391 L70.0604388,77.4850341 L69.0445262,80.2874002 L68.8395711,80.2125263 C68.341195,80.0300343 67.7837072,80.1285217 67.3772931,80.4708566 C66.9708791,80.8131916 66.7773477,81.3473105 66.8696645,81.8718387 C66.9619814,82.396367 67.3261068,82.8315322 67.8247571,83.0132676 L68.0293559,83.088052 L66.8084734,86.4559743 L60.5021641,84.1516245 C46.0279373,78.8616666 38.0152132,62.9059184 42.6398845,48.5849037 C44.9801387,41.2556974 50.196233,35.2019399 57.0830108,31.822327 C63.9697883,28.4427139 71.9314349,28.0296349 79.1284454,30.6785298 L86.1030928,33.2289065 L85.0876701,36.0299907 Z M26.9941955,40.4811169 L22.0953452,12.5876619 L27.9437938,11.5520386 L32.842466,39.4446737 L26.9941955,40.4811169 Z M32.6025204,42.5143229 L31.3260272,47.9794137 L28.2645278,43.2823799 L32.6025204,42.5143229 Z M21.0531563,4.13559172 C21.2777886,3.81025559 21.6229834,3.58897115 22.0114392,3.52129221 L24.9355744,3.00306317 C25.0213132,2.98851396 25.1081167,2.98121412 25.1950713,2.98124049 C25.914893,2.98291042 26.5300032,3.50240763 26.6549641,4.21420703 L27.4282144,8.61720112 L21.5797658,9.65291388 L20.8066936,5.25065019 C20.7361348,4.8608076 20.8249775,4.45886165 21.0531563,4.13559172 Z M18.9640726,11.924962 L24.328132,42.4666678 C24.3337435,42.4986863 24.3542301,42.5275298 24.3618458,42.55928 C24.3962815,42.7123706 24.4546973,42.8590035 24.534913,42.9937064 C24.5408511,43.0033507 24.5408511,43.0145751 24.5470565,43.0241896 L30.7374532,52.5225261 C31.0118223,52.9432742 31.4790118,53.1967131 31.9798763,53.1965101 C32.0664213,53.1966429 32.1527982,53.1888495 32.2379332,53.1732266 C32.8224688,53.0698166 33.289447,52.6266848 33.4252652,52.0465263 L36.0072445,40.995038 L36.0076008,40.9864819 C36.0258455,40.8673423 36.0294949,40.7464079 36.0184676,40.6263778 C36.0258066,40.5501232 36.0273797,40.4734199 36.0231736,40.3969267 L36.0231736,40.395287 L31.0237608,11.924962 L78.6804124,11.924962 C79.5000682,11.9255211 80.1643916,12.5925671 80.1649485,13.4155822 L80.1649485,27.8857186 L80.1432,27.8778034 C72.1885137,24.9703169 63.3982939,25.436018 55.7924917,29.1678906 C48.1866893,32.8997633 42.4193487,39.5768931 39.8157773,47.6649078 C34.8329616,63.0956148 43.1124124,80.1996324 58.3125773,86.4559743 L13.3227761,86.4559743 C14.3047674,85.1732357 14.8397377,83.6020177 14.8453608,81.9841136 L14.8453608,11.924962 L18.9640726,11.924962 Z M7.42268041,2.98124049 C9.88122788,2.9839351 11.873605,4.98447775 11.8762887,7.45310123 L11.8762887,76.0597477 C9.25420341,74.021424 5.59115742,74.021424 2.96907216,76.0597477 L2.96907216,7.45310123 C2.97175578,4.98447775 4.96413295,2.9839351 7.42268041,2.98124049 Z"></path>
                            <path d="M77.0958482,36.2814583 C65.5393698,32.0582967 52.7614178,38.0415196 48.5554936,49.6453607 C44.3495694,61.2492018 50.308371,74.0795224 61.8648495,78.302684 C62.2347121,78.4382509 62.643091,78.4205141 62.999914,78.2533861 C63.3567371,78.0862579 63.632691,77.7834681 63.7669113,77.4117999 L77.9830812,38.1913155 C78.1179997,37.8199321 78.10029,37.4099194 77.9338558,37.0516593 C77.7674216,36.6933991 77.4659274,36.4163049 77.0958334,36.2814583 L77.0958482,36.2814583 Z M61.5038697,74.9386075 C52.312009,70.7606183 47.8767645,60.1782642 51.3274706,50.6580392 C54.7781767,41.1378141 64.9499901,35.8934288 74.6660784,38.6251158 L61.5038697,74.9386075 Z"></path>
                        </g>
                    </g>
                </g>
            </g>
        </g>
    </g>
</svg>