<?xml version="1.0" encoding="UTF-8"?>
<svg width="90px" height="90px" viewBox="0 0 90 90" version="1.1" xmlns="http://www.w3.org/2000/svg" xmlns:xlink="http://www.w3.org/1999/xlink">
    <!-- Generator: Sketch 50.2 (55047) - http://www.bohemiancoding.com/sketch -->
    <title>Group</title>
    <desc>Created with Sketch.</desc>
    <defs></defs>
    <g id="Page-4" stroke="none" stroke-width="1" fill="none" fill-rule="evenodd" fill-opacity="0.5">
        <g id="homepage" transform="translate(-752.000000, -1040.000000)" fill="#1C1B1B" fill-rule="nonzero">
            <g id="ENERGY" transform="translate(40.000000, 928.000000)">
                <g id="EPCI" transform="translate(40.000000, 112.000000)">
                    <g id="Group" transform="translate(672.000000, 0.000000)">
                        <g id="Shape">
                            <path d="M89.885745,0.925785 L89.88345,0.92193 C89.87778,0.908295 89.86716,0.898215 89.861115,0.88485 C89.7940761,0.738602159 89.7035888,0.604292301 89.59323,0.48723 C89.5569197,0.450872216 89.5187538,0.416416218 89.478885,0.384 C89.3842718,0.300791253 89.2793819,0.23005473 89.16678,0.17352 C89.1204293,0.148305838 89.0727159,0.125681112 89.02386,0.10575 C88.8571047,0.0390004638 88.6795907,0.00316625643 88.5,0 L40.5,0 C40.102212,0.000106370273 39.7207512,0.158194091 39.4395,0.4395 L0.439905,39.43899 L0.437715,39.441825 C0.317169582,39.5666424 0.219440223,39.711627 0.148965,39.870195 C0.0801316058,40.0421375 0.0362618066,40.2230468 0.01869,40.40742 C0.0165,40.43976 1.6890489e-16,40.467135 1.6890489e-16,40.5 L1.6890489e-16,49.5 C2.70357953e-16,50.3284271 0.671572875,51 1.5,51 L12.75,51 C16.476236,51.0040674 19.4959326,54.0237641 19.5,57.75 L19.5,59.37891 L0.439905,78.43899 C0.160268201,78.721595 0.00236759586,79.1024366 0,79.5 L0,88.5 C1.03824499e-16,89.3284271 0.671572875,90 1.5,90 L49.5,90 C49.7022737,89.9999595 49.9024293,89.9588118 50.088315,89.879055 C50.10846,89.870445 50.12301,89.85186 50.142795,89.842335 C50.3021013,89.7688163 50.4472764,89.6679224 50.57172,89.54424 L50.58618,89.534175 L80.5605,58.0605 L89.5605,49.0605 C89.841806,48.7792488 89.9998937,48.397788 90,48 L90,39 C90,38.98077 89.989845,38.96493 89.98911,38.945895 C89.9862528,38.7677154 89.9512358,38.591517 89.885745,38.425785 L89.88345,38.421945 C89.87778,38.40831 89.86716,38.39823 89.861115,38.384865 C89.7137814,38.0781531 89.4698532,37.8282753 89.16678,37.673595 C89.1204309,37.6483554 89.0727176,37.6257056 89.02386,37.60575 C88.8571047,37.5390005 88.6795907,37.5031662 88.5,37.5 L77.25,37.5 C77.1221979,37.508519 76.9960944,37.5339818 76.875,37.57572 C76.7539056,37.5339818 76.6278021,37.508519 76.5,37.5 C73.0009389,37.4893574 70.0926744,34.8013962 69.807,31.314 L89.55954,11.56155 C89.839641,11.278988 89.997779,10.8978604 90,10.5 L90,1.5 C90,1.48077 89.989845,1.46493 89.98911,1.445895 C89.9862528,1.26771543 89.9512358,1.09151697 89.885745,0.925785 Z M87,9.87891 L67.189905,29.68899 L67.18899,29.689905 L51,45.87891 L51,41.12109 L87,5.12109 L87,9.87891 Z M41.12109,3 L84.87891,3 L48.87891,39 L5.12109,39 L41.12109,3 Z M19.5,71.25 C19.4959326,74.9762359 16.4762359,77.9959326 12.75,78 L5.12109,78 L19.5,63.62109 L19.5,71.25 Z M3,87 L3,81 L12.75,81 C18.132196,80.9937757 22.4937757,76.632196 22.5,71.25 L22.5,57.75 C22.4937757,52.3678039 18.132196,48.0062242 12.75,48 L3,48 L3,42 L48,42 L48,48 L38.25,48 C32.8678039,48.0062242 28.5062242,52.3678039 28.5,57.75 L28.5,71.25 C28.5062242,76.632196 32.8678039,80.9937757 38.25,81 L48,81 L48,87 L3,87 Z M78.413085,55.965825 L51,84.74973 L51,80.09973 L80.5605,49.0605 L87,42.62109 L87,47.37891 L78.413085,55.965825 Z M76.5,40.5 C76.6278021,40.491481 76.7539056,40.4660182 76.875,40.42428 C76.9960944,40.4660182 77.1221979,40.491481 77.25,40.5 L84.87891,40.5 L78.413085,46.965825 L48.856935,78 L38.25,78 C34.523764,77.9959326 31.5040674,74.9762359 31.5,71.25 L31.5,57.75 C31.5040674,54.023764 34.523764,51.0040674 38.25,51 L49.5,51 C49.8978027,50.9988204 50.2790766,50.8407405 50.56101,50.560095 L67.265805,33.855285 C68.6016192,37.8203826 72.3159408,40.4931232 76.5,40.5 Z"></path>
                            <path d="M36.6423365,70.750705 C36.3668035,71.039874 36.2105664,71.4223853 36.2048611,71.8217655 C36.2048611,72.6549068 36.8802557,73.3303014 37.713397,73.3303014 C38.5465383,73.3303014 39.2219329,72.6549068 39.2219329,71.8217655 C39.2254969,71.2089 38.8579174,70.6547923 38.2918926,70.419776 C37.7258678,70.1847599 37.0739143,70.3155529 36.6423365,70.750705 Z"></path>
                            <path d="M42.6559187,64.4624336 L41.1473828,66.0431529 C40.5746406,66.6464036 40.5981898,67.5994019 41.2000281,68.1736281 C41.8018664,68.7478541 42.75492,68.7266521 43.3306264,68.1262297 L44.8391623,66.5455104 C45.2112682,66.1555088 45.3470449,65.5966163 45.1953465,65.0793624 C45.0436481,64.5621084 44.6275212,64.1650763 44.103717,64.037824 C43.5799128,63.9105716 43.0280095,64.0724319 42.6559036,64.4624336 L42.6559187,64.4624336 Z"></path>
                            <path d="M48.6900622,58.1410196 L47.1815263,59.7217389 C46.6063005,60.3246292 46.628727,61.2796808 47.2316173,61.8549067 C47.8345075,62.4301325 48.7895592,62.407706 49.3647851,61.8048157 L50.8733209,60.2240964 C51.4485468,59.6212061 51.4261203,58.6661545 50.82323,58.0909286 C50.2203397,57.5157028 49.2652881,57.5381293 48.6900622,58.1410196 Z"></path>
                            <path d="M54.3072917,55.9503992 C54.7198041,55.9509886 55.1144599,55.7821543 55.3989135,55.4834017 L56.9074494,53.9026824 C57.4826752,53.2997921 57.4602487,52.3447405 56.8573584,51.7695146 C56.2544681,51.1942888 55.2994165,51.2167153 54.7241906,51.8196056 L53.2156548,53.4003249 C52.798762,53.8371251 52.6824941,54.4804361 52.9201187,55.0355295 C53.1577433,55.5906227 53.7034754,55.9505446 54.3072917,55.9503992 Z"></path>
                            <path d="M60.3414352,49.6289852 C60.7539476,49.6295746 61.1486034,49.4607403 61.433057,49.1619877 L62.9415929,47.5812684 C63.3152717,47.1915471 63.4522184,46.631854 63.3006982,46.1136259 C63.149178,45.595398 62.7322893,45.197636 62.2075214,45.0706038 C61.6827533,44.9435715 61.1301041,45.1066343 60.7583492,45.4981916 L59.2498134,47.0789109 C58.8329224,47.5157089 58.7166536,48.1590165 58.9542743,48.7141086 C59.1918951,49.2692004 59.7376218,49.6291246 60.3414352,49.6289852 Z"></path>
                            <path d="M66.3755787,43.3105128 C66.7787167,43.3090737 67.164474,43.1461862 67.4466392,42.8582538 C67.7324311,42.5819253 67.8908377,42.1994556 67.8841146,41.8019769 C67.8809927,41.4020746 67.7243825,41.0186495 67.4466392,40.7309165 C67.0150614,40.2957644 66.3631079,40.1649713 65.7970831,40.3999874 C65.2310583,40.6350038 64.8634788,41.1891115 64.8670428,41.8019769 C64.8599787,42.1995203 65.0184392,42.5821206 65.3045182,42.8582538 C65.5866834,43.1461862 65.9724407,43.3090737 66.3755787,43.3105128 Z"></path>
                        </g>
                    </g>
                </g>
            </g>
        </g>
    </g>
</svg>