<?xml version="1.0" encoding="UTF-8"?>
<svg width="90px" height="90px" viewBox="0 0 90 90" version="1.1" xmlns="http://www.w3.org/2000/svg" xmlns:xlink="http://www.w3.org/1999/xlink">
    <!-- Generator: Sketch 50.2 (55047) - http://www.bohemiancoding.com/sketch -->
    <title>Group</title>
    <desc>Created with Sketch.</desc>
    <defs></defs>
    <g id="Page-4" stroke="none" stroke-width="1" fill="none" fill-rule="evenodd" fill-opacity="0.5">
        <g id="homepage" transform="translate(-1088.000000, -1040.000000)" fill="#1C1B1B" fill-rule="nonzero">
            <g id="ENERGY" transform="translate(40.000000, 928.000000)">
                <g id="EPCI" transform="translate(40.000000, 112.000000)">
                    <g id="Group" transform="translate(1008.000000, 0.000000)">
                        <g id="Shape">
                            <path d="M85.5,0 L37.5,0 C35.0158427,0.00271156748 33.0027116,2.01584267 33,4.5 C32.9989257,5.32798173 32.3279817,5.99892571 31.5,6 L3,6 C1.34383122,6.00165369 0.00165368949,7.34383122 0,9 L0,22.5 C0.00271156748,24.9841574 2.01584267,26.9972884 4.5,27 L15,27 L15,78 L12,78 C9.51584267,78.0027116 7.50271157,80.0158426 7.5,82.5 L7.5,88.5 C7.5,89.3284271 8.17157287,90 9,90 L42,90 C42.8284271,90 43.5,89.3284271 43.5,88.5 L43.5,82.5 C43.4972884,80.0158426 41.4841573,78.0027116 39,78 L36,78 L36,37.5 L46.5,37.5 C52.2962964,37.4935024 56.9935024,32.7962964 57,27 L57,15 L73.5,15 L73.5,34.5 C71.8438312,34.5016537 70.5016538,35.8438313 70.5,37.5 L70.5,52.5 C70.5016538,54.1561687 71.8438312,55.4983463 73.5,55.5 L78,55.5 L78,58.713 C74.9879414,59.4975234 73.0785765,62.4581632 73.6064241,65.5256298 C74.1342718,68.5930964 76.9234369,70.7452162 80.0244794,70.4778012 C83.1255218,70.2103862 85.5050792,67.6125469 85.5,64.5 C85.5,63.6715729 84.8284271,63 84,63 C83.1715729,63 82.5,63.6715729 82.5,64.5 C82.5,66.1568542 81.1568542,67.5 79.5,67.5 C77.8431458,67.5 76.5,66.1568542 76.5,64.5 C76.5,62.8431458 77.8431458,61.5 79.5,61.5 C80.3284271,61.5 81,60.828427 81,60 L81,55.5 L85.5,55.5 C87.1561687,55.4983463 88.4983462,54.1561687 88.5,52.5 L88.5,37.5 C88.4983462,35.8438313 87.1561687,34.5016537 85.5,34.5 L85.5,15 L88.5,15 C89.3284271,15 90,14.3284271 90,13.5 L90,4.5 C89.9972884,2.01584267 87.9841574,0.00271156748 85.5,0 Z M55.5,12 L51.92715,12 L55.5,4.85376 L59.07285,12 L55.5,12 Z M47.07285,12 L39.92715,12 L43.5,4.85376 L47.07285,12 Z M45.927255,3 L53.07276,3 L49.5,10.145505 L45.927255,3 Z M57.927255,3 L65.07276,3 L61.5,10.145505 L57.927255,3 Z M67.5,4.85376 L71.07285,12 L63.92715,12 L67.5,4.85376 Z M73.5,10.145505 L69.92724,3 L77.072745,3 L73.5,10.145505 Z M79.5,4.85376 L83.07285,12 L75.92715,12 L79.5,4.85376 Z M3,9 L31.5,9 C33.9841573,8.99728844 35.9972884,6.98415733 36,4.5 C36.0010743,3.67201827 36.6720183,3.00107428 37.5,3 L41.07276,3 L36.57276,12 L3,12 L3,9 Z M3,15 L15,15 L15,18 L3,18 L3,15 Z M18,53.298 L18,39.702 L23.561925,46.5 L18,53.298 Z M25.5,48.86877 L32.561925,57.500175 L25.5,66.13128 L18.438075,57.50028 L25.5,48.86877 Z M18.438075,35.49975 L25.5,26.86872 L32.561925,35.49972 L25.5,44.13117 L18.438075,35.49975 Z M27.438165,24.499875 L33,17.702085 L33,31.297665 L27.438165,24.499875 Z M25.5,22.131 L19.665435,15 L31.334565,15 L25.5,22.131 Z M18,25.5 L18,17.702085 L23.561835,24.499875 L18,31.297665 L18,25.5 Z M23.561835,68.500125 L18,75.297915 L18,61.702335 L23.561835,68.500125 Z M25.5,70.869 L31.334565,78 L19.665435,78 L25.5,70.869 Z M27.438165,68.50017 L33,61.702335 L33,75.297915 L27.438165,68.50017 Z M27.438075,46.5 L33,39.702 L33,53.298 L27.438075,46.5 Z M4.5,24 C3.67201827,23.9989257 3.00107428,23.3279817 3,22.5 L3,21 L15,21 L15,24 L4.5,24 Z M40.5,82.5 L40.5,87 L10.5,87 L10.5,82.5 C10.5010743,81.6720183 11.1720183,81.0010743 12,81 L39,81 C39.8279817,81.0010743 40.4989257,81.6720183 40.5,82.5 Z M54,27 C53.9951316,31.1401173 50.6401173,34.4951316 46.5,34.5 L36,34.5 L36,15 L54,15 L54,27 Z M85.50219,52.5 L73.5,52.5 L73.5,37.5 L85.5,37.5 L85.50219,52.5 Z M82.5,34.5 L76.5,34.5 L76.5,15 L82.5,15 L82.5,34.5 Z M87,12 L86.42724,12 L81.92724,3 L85.5,3 C86.3279817,3.00107428 86.9989257,3.67201827 87,4.5 L87,12 Z"></path>
                            <path d="M40.5,18 C39.6715729,18 39,18.671573 39,19.5 L39,25.5 C39,26.3284271 39.6715729,27 40.5,27 L46.5,27 C48.9852813,27 51,24.9852813 51,22.5 C51,20.0147187 48.9852813,18 46.5,18 L40.5,18 Z M48,22.5 C47.9989257,23.3279817 47.3279817,23.9989257 46.5,24 L42,24 L42,21 L46.5,21 C47.3279817,21.0010743 47.9989257,21.6720183 48,22.5 Z"></path>
                        </g>
                    </g>
                </g>
            </g>
        </g>
    </g>
</svg>