<?xml version="1.0" encoding="utf-8"?>
<!-- Generator: Adobe Illustrator 23.0.6, SVG Export Plug-In . SVG Version: 6.00 Build 0)  -->
<svg width="90px" height="90px" version="1.1" id="Layer_1" xmlns="http://www.w3.org/2000/svg" xmlns:xlink="http://www.w3.org/1999/xlink" x="0px" y="0px"
	 viewBox="0 0 90 90" style="enable-background:new 0 0 90 90;" xml:space="preserve">
<style type="text/css">
	.st0{opacity:0.5;fill:#1C1B1B;}
</style>
<title>Group</title>
<desc>Created with Sketch.</desc>
<path class="st0" d="M89,72.4h-5.9c-0.5,0-1,0.4-1,1V88H53.7L38.4,72.7c-0.7-0.7-0.7-1.8,0-2.5c0.7-0.7,1.8-0.7,2.5,0l10.8,10.8
	c0.2,0.2,0.4,0.3,0.7,0.3H66c1.9,0,3.4-1.5,3.4-3.4s-1.5-3.4-3.4-3.4h-5.9c-1.3,0-2.4-1.1-2.4-2.4c0-1.3,1.1-2.4,2.4-2.4H71l4.6,4.6
	c0.2,0.2,0.4,0.3,0.7,0.3h2.9c0.5,0,1-0.4,1-1v-47c0-0.5-0.4-1-1-1H57.7V13.7h2.9c0.5,0,1-0.4,1-1s-0.4-1-1-1h-3.9c-0.5,0-1,0.4-1,1
	v12.7h-2.9V7.8c0-2.7-2.2-4.9-4.9-4.9H19.6V1c0-0.5-0.4-1-1-1H1C0.4,0,0,0.4,0,1v20.5c0,0.5,0.4,1,1,1h17.6c0.5,0,1-0.4,1-1v-1h2.9
	v4.9H1c-0.5,0-1,0.4-1,1V89c0,0.5,0.4,1,1,1h88c0.5,0,1-0.4,1-1V73.4C90,72.8,89.6,72.4,89,72.4z M9.8,20.5H2V2h7.8V20.5z
	 M17.6,20.5h-5.9V2h5.9V20.5z M19.6,18.6V4.9h28.4c1.6,0,2.9,1.3,2.9,2.9v10.8c0,1.1-0.9,2-2,2c-1.1,0-2-0.9-2-2v-7.8
	c0-0.5-0.4-1-1-1c-0.5,0-1,0.4-1,1v7.8c0,1.1-0.9,2-2,2c-1.1,0-2-0.9-2-2v-7.8c0-0.5-0.4-1-1-1c-0.5,0-1,0.4-1,1v7.8
	c0,1.1-0.9,2-2,2c-1.1,0-2-0.9-2-2v-7.8c0-0.5-0.4-1-1-1s-1,0.4-1,1v7.8c0,1.1-0.9,2-2,2c-1.1,0-2-0.9-2-2v-7.8c0-0.5-0.4-1-1-1
	s-1,0.4-1,1v1c-2.7,0-4.9,2.2-4.9,4.9v2H19.6z M50.9,22v3.5H29.3V22c0.6,0.3,1.2,0.5,2,0.5c1.2,0,2.2-0.5,2.9-1.4
	c0.7,0.8,1.8,1.4,2.9,1.4s2.2-0.5,2.9-1.4c0.7,0.8,1.8,1.4,2.9,1.4s2.2-0.5,2.9-1.4c0.7,0.8,1.8,1.4,2.9,1.4
	C49.6,22.5,50.3,22.3,50.9,22z M27.4,13.7v11.7h-2.9v-8.8C24.5,15,25.8,13.7,27.4,13.7z M2,27.4h76.3v19.2L73,51.8H48.9V45
	c0-0.5-0.4-1-1-1H32.3c-0.5,0-1,0.4-1,1v6.8H7.3L2,46.6L2,27.4z M33.3,51.8V46H47v5.9H33.3z M42.1,53.8v2h-3.9v-2H42.1z M2,88V49.3
	l4.2,4.2c0.2,0.2,0.4,0.3,0.7,0.3h29.3v2.9c0,0.5,0.4,1,1,1H43c0.5,0,1-0.4,1-1v-2.9h29.3c0.3,0,0.5-0.1,0.7-0.3l4.2-4.2v23.1h-1.6
	l-4.6-4.6c-0.2-0.2-0.4-0.3-0.7-0.3H60.2c-2.4,0-4.4,2-4.4,4.4s2,4.4,4.4,4.4H66c0.8,0,1.5,0.7,1.5,1.5c0,0.8-0.7,1.5-1.5,1.5H52.7
	L42.3,68.8c-1.4-1.4-3.9-1.4-5.3,0c-1.5,1.5-1.5,3.8,0,5.3l14,14H2z M88,88h-3.9V74.3H88V88z"/>
<circle class="st0" cx="14.7" cy="17.6" r="1"/>
<circle class="st0" cx="36.2" cy="48.9" r="1"/>
<circle class="st0" cx="40.1" cy="48.9" r="1"/>
<circle class="st0" cx="44" cy="48.9" r="1"/>
<path class="st0" d="M7.8,77.9V57.7c0-0.5-0.4-1-1-1s-1,0.4-1,1v20.5c0,0.3,0.1,0.5,0.3,0.7l4.9,4.9c0.2,0.2,0.4,0.3,0.7,0.3h29.3
	c0.5,0,1-0.4,1-1c0-0.5-0.4-1-1-1H12.1L7.8,77.9z"/>
<path class="st0" d="M73.4,65.5c0.5,0,1-0.4,1-1v-6.8c0-0.5-0.4-1-1-1s-1,0.4-1,1v6.8C72.4,65.1,72.8,65.5,73.4,65.5z"/>
<path class="st0" d="M81.9,0.3c-0.3-0.3-0.7-0.4-1.1-0.2c-0.4,0.2-0.6,0.5-0.6,0.9v2.9h-2.9c-0.5,0-1,0.4-1,1s0.4,1,1,1h3.9
	c0.5,0,1-0.4,1-1V3.3l5.5,5.5l-5.5,5.5v-1.6c0-0.5-0.4-1-1-1h-9.8c-0.5,0-1,0.4-1,1s0.4,1,1,1h8.8v2.9c0,0.4,0.2,0.8,0.6,0.9
	c0.1,0.1,0.2,0.1,0.4,0.1c0.3,0,0.5-0.1,0.7-0.3l7.8-7.8c0.4-0.4,0.4-1,0-1.4L81.9,0.3z"/>
<path class="st0" d="M74.3,4.9c0-0.5-0.4-1-1-1H60.7c-0.5,0-1,0.4-1,1s0.4,1,1,1h12.7C73.9,5.9,74.3,5.4,74.3,4.9z"/>
<path class="st0" d="M64.6,11.7c-0.5,0-1,0.4-1,1s0.4,1,1,1h2.9c0.5,0,1-0.4,1-1s-0.4-1-1-1H64.6z"/>
<path class="st0" d="M56.7,5.9c0.5,0,1-0.4,1-1s-0.4-1-1-1h-2c-0.5,0-1,0.4-1,1s0.4,1,1,1H56.7z"/>
</svg>
