<?xml version="1.0" encoding="utf-8"?>
<!-- Generator: Adobe Illustrator 23.0.6, SVG Export Plug-In . SVG Version: 6.00 Build 0)  -->
<svg version="1.1" id="Layer_1" xmlns="http://www.w3.org/2000/svg" xmlns:xlink="http://www.w3.org/1999/xlink" x="0px" y="0px"
	 viewBox="0 0 300.5 134.1" style="enable-background:new 0 0 300.5 134.1;" xml:space="preserve">
<style type="text/css">
	.st0{fill:#3F48CC;}
	.st1{fill:#020202;}
	.st2{fill:#0A0B38;}
	.st3{fill:#010379;}
	.st4{fill:#02027B;}
	.st5{fill:#020479;}
	.st6{fill:#020477;}
	.st7{fill:#030377;}
	.st8{fill:#0A0C39;}
	.st9{fill:#FCFCE9;}
	.st10{fill:#FCEF00;}
	.st11{fill:#FFF200;}
	.st12{fill:#020187;}
</style>
<g>
	<path class="st0" d="M33.9,93.4c0.5-0.4,0.9-1.2,1.5-1.3c1.8-0.4,2.4-1.9,3-3.2c1.3-2.9,2.4-5.9,3.6-8.9c0.6-1.5,1.1-3,1.7-4.5
		c0.1-0.3,0.3-0.6,0.5-0.9c0.6-1.5,1.1-2.9,1.7-4.4c0.4-1,0.8-2,1.2-3c0.9-2.1,1.7-4.2,2.6-6.3c0.2-0.4,0.2-0.9,0.4-1.4
		c2.1,0,4.3,0,6.5,0c0.3,0,0.6,0.3,0.8,0.6c0.4,0.5,0.6,1,0.9,1.5c0,0.1,0,0.2,0.1,0.2c0.2,0.5,0.3,1.1,0.5,1.6
		c0.6,1.7,1.2,3.4,1.9,5c0.4,0.9,0.9,1.6,1.3,2.5c0.9,2,1.8,4,2.7,6c0.9,2.1,1.7,4.3,2.6,6.4c1,2.3,2,4.6,3.2,6.8
		c0.8,1.4,1.8,2.7,3.8,2.3c1.3-0.2,2.6,0,3.9-0.1c1.3-0.1,2.5-0.3,3.7-0.4c0.3-0.8,0.6-1.4,0.9-2c0.1-0.4,0.3-0.7,0.3-1.1
		c0-8.2,0-16.4,0-24.6c0-0.4-0.2-0.7-0.3-1.1c-0.3-1.7-1.6-2.1-3.1-2.2c-0.4-0.9-0.7-0.9-1.4-0.2c-0.2,0-0.3,0-0.5,0
		c-0.3-0.3-0.5-0.5-1-0.9c0.6,0,1.1,0,1.5,0c6,0,11.9,0,17.9,0c0.4,0,0.8-0.3,1.2-0.4c1.8,0,3.5,0,5.3-0.1c1.1-0.1,1.4,0.4,1.1,1.5
		c-1,0-2.1-0.1-3.1,0c-1.2,0.2-2.5,0.1-3.2,1.4c-0.2,0.3-0.5,0.7-0.5,1c0,9.1,0,18.1,0,27.2c0,0.3,0.3,0.6,0.4,1
		c0,0.3,0,0.6,0.1,1.1c2.2-0.2,4.5-0.1,6.6-0.8c1.6-0.5,3.1-1.7,4.5-2.9c1.3-1.1,2.4-2.3,3.4-3.6c2.1-2.5,4-5.1,5.4-8.1
		c0.2-0.5,1.2-0.6,2-0.9c0,6.1,0,11.8,0,17.5c-0.4,0-0.8,0-1.2,0c-22.2,0-44.4,0-66.7,0c-0.4,0-0.9,0-1.3,0c-0.2,0-0.4-0.2-0.5-0.3
		c0.1-0.2,0.3-0.4,0.4-0.6c0.1-0.1,0.3-0.2,0.5-0.3c0.7-0.1,1.4-0.2,2-0.2c1.7-0.1,2.4-1,1.9-2.6c-0.4-1.4-0.9-2.7-1.4-4.1
		c-0.3-0.8-0.7-1.5-1-2.4c-3,0-6.2,0-9.1,0c-0.6,1.6-1.1,3.2-1.6,4.7c-0.2,0.8-0.3,1.6-0.4,2.4c-0.1,1.4,0.5,1.9,1.9,1.9
		c1,0,1.9,0.1,2.9,0.2c0.3,0.3,0.6,0.6,0.9,0.9c-0.4,0.1-0.8,0.3-1.3,0.3c-3.5,0-7,0-10.5,0C34.7,93.9,34.3,93.6,33.9,93.4z
		 M51.6,81.8c-0.2-0.5-0.3-1-0.5-1.5c-0.5-1.4-0.9-2.8-1.5-4.1c-0.7-1.6-1.4-3.2-2.2-4.8c-0.1,0.4-0.3,0.9-0.4,1.4
		c-0.5,1.2-1,2.5-1.4,3.7c-0.3,0.9-0.6,1.9-1,2.8c-0.3,0.8-0.8,1.7-1.1,2.5c0.4,0.1,0.7,0.2,1.1,0.2c1.7,0,3.4,0,5.1,0
		C50.3,82,51,81.8,51.6,81.8z"/>
	<path class="st1" d="M89.4,119.4c-1.5,1.2-2.9,2.5-4.4,3.7c-1.3,1.1-3,0.7-4.1-0.3c-1.7-1.4-3.4-2.8-5.1-4.2
		c-0.1-0.1-0.3-0.1-0.4-0.2c-1.6-1.4-1.6-1.3-3.4-0.4c-2,1-4.1,1.8-6.1,2.7c-0.6,0.3-1.3,0.5-1.9,0.8c-0.2,0.1-0.4,0.5-0.4,0.8
		c-0.3,2.9-0.6,5.8-0.9,8.7c-0.2,1.9-1.3,2.9-3.2,2.9c-4.4,0-8.8,0-13.3,0c-1.9,0-2.9-0.9-3.1-2.8c-0.3-2.2-0.5-4.4-0.7-6.6
		c-0.1-0.9-0.2-1.8-0.5-2.6c-0.2-0.5-0.9-0.8-1.5-1.1c-2.4-1.1-4.9-2-7.2-3.2c-1-0.5-1.6-0.4-2.4,0.3c-2,1.7-4,3.5-6.1,5.1
		c-1.5,1.1-3,1-4.4-0.4c-0.1-0.1-0.2-0.2-0.3-0.2c-1.5-1.5-1.4-1.9,0.1-3.3c1.3-1.2,2.5-2.6,3.7-3.9c1.6-1.6,3.3-3.2,4.8-4.9
		c1.8-1.8,3.4-3.7,5.2-5.6c1.1-1.2,2.3-2.4,3.4-3.6c11.7,7.7,22.7,6.9,33.5-1.8c6.1,6.4,12.3,12.9,18.5,19.3
		C89.2,119,89.3,119.2,89.4,119.4z"/>
	<path class="st1" d="M14.6,41c1.4,1.3,2.8,2.5,4.2,3.8c1.7,1.7,3.3,3.6,4.9,5.3c1.6,1.7,3.3,3.3,4.9,4.9c1.2,1.2,2.3,2.4,3.4,3.7
		c0.4,0.5,1.2,1,1.2,1.5c0,0.6-0.9,1-1.2,1.6c-1.1,2.1-2.3,4.2-3.3,6.3c-2.8,6-2.6,12.3-1.1,18.6c0.5,2.2,1.8,4.2,2.7,6.2
		c0.2,0.5,0.6,0.8-0.1,1.5c-2,1.9-3.6,4-5.5,6c-1.7,1.8-3.4,3.4-5.1,5.2c-2.2,2.3-4.4,4.6-6.5,7c-1,1.1-2.1,0.9-2.7-0.5
		c-0.6-1.4-0.5-2.6,0.6-3.9c1.7-2.1,3.3-4.4,4.8-6.7c0.3-0.4,0.3-1.1,0.1-1.6c-0.9-2.5-2-4.9-2.9-7.4c-0.6-1.7-1.4-2.4-3.3-2.6
		c-2.2-0.2-4.3-0.5-6.5-0.7C1.2,88.9,0,87.6,0,85.7c0-4.5,0-9.1,0-13.6c0-2,1.1-3.2,3.2-3.5c2.6-0.3,5.3-0.7,7.9-1
		c0.6-0.1,1-0.3,1.2-0.9c0.2-0.7,0.5-1.4,0.8-2.1c0.8-2.1,1.6-4.2,2.5-6.2c0.5-1.1,0.6-1.9-0.2-2.8c-1.3-1.6-2.5-3.2-3.7-4.9
		c-0.6-0.8-1.2-1.6-1.6-2.5c-0.5-1.3-0.1-2.5,0.9-3.5c1.1-1.1,2.1-2.2,3.2-3.4c0.2-0.2,0.5-0.5,0.7-0.7C14.8,40.7,14.7,40.8,14.6,41
		z"/>
	<path class="st0" d="M277.5,95c-2.2-0.3-4.5-0.4-6.7-0.9c-2.1-0.5-4.1-1.3-6.1-2.3c-2.6-1.3-5-3.2-6.7-5.7
		c-1.2-1.7-2.2-3.6-2.5-5.8c-0.3-2.1-0.3-4.2-0.2-6.3c0.2-2.4,1.5-4.3,2.5-6.4c0.2-0.5,0.8-0.9,1.2-1.3c2.1-2.2,4.6-4,7.4-5.2
		c1.9-0.8,4.1-1.2,6.3-1.6c2-0.3,4.1-0.5,6.2-0.5c1.4,0,2.8,0.2,4.1,0.5c1.8,0.4,3.6,0.6,5.1,1.5c1.1,0.7,2.7,0.5,3.4,2
		c0.1,0.3,0.9,0.2,1.2,0.4c1.1,0.8,2.6,1.6,3.1,2.7c0.6,1.6,2.5,2.2,2.6,4.2c0,1.1,0.9,2.1,1.3,3.2c1.2,3.2,0.4,6.3-0.8,9.2
		c-0.7,1.7-1.9,3.3-3.1,4.7c-2.4,2.6-5.4,4.4-8.7,5.8c-0.2,0.1-0.6,0-0.8,0.1c-2,0.5-4.1,1-6.1,1.5C279.4,94.9,278.5,94.9,277.5,95
		C277.5,95,277.5,95,277.5,95z M270.7,77.4c0.3,2.9,0.4,6,1,8.9c0.4,1.8,0.4,3.9,2,5.3c0.6,0.5,1.2,1,1.8,1.2c0.7,0.2,1.6,0.2,2.4,0
		c1.8-0.3,3.4-1,4.3-3c0.7-1.4,1-2.8,1.2-4.3c0.3-2,0.7-3.9,0.7-5.9c0.1-2.8,0-5.7-0.2-8.5c-0.2-2.5-0.6-5.1-1.7-7.4
		c-0.9-1.8-2.3-2.8-4.1-3.1c-1-0.1-2.1,0.2-3,0.6c-2.6,1.1-3.1,3.7-3.5,6C271.2,70.7,271.1,74,270.7,77.4z"/>
	<path class="st0" d="M147.9,59.6c0.9,0,1.8,0,2.6,0c0.4,0.1,0.8,0.4,1.2,0.4c3.9,0,7.7,0,11.6,0c0.8,0,1.1,0.2,1.1,1.1
		c0,3.6,0,7.2,0,10.9c0,0.6-0.3,1.3-0.5,1.9c-1.6,0.4-1.3-1.2-1.9-1.8c-1.3-1.5-2.3-3.1-3.6-4.6c-1-1.2-2.2-2.2-3.4-3.3
		c-1.7-1.6-3.6-2.7-6-2.8c-2,0-4-0.2-6.1-0.3c0,0.7-0.1,1.2-0.1,1.7c0,0.5,0,1,0,1.4c-0.1,0.3-0.4,0.6-0.4,0.8c0,3.1,0,6.2,0,9.3
		c0,0.3,0.3,0.6,0.4,0.8c0.6,0.1,1.1,0.3,1.6,0.2c0.5-0.1,1-0.2,1.4-0.3c0.9-0.2,1.9-0.5,2.6-1.2c0.6-0.6,0.9-1.5,1.3-2.2
		c0.1-0.3,0.3-0.5,0.4-0.8c0.1-1.1,0.3-2.1,0.4-3.2c0.6,0,1.1,0,1.7,0c0,5.9,0,11.7,0,17.5c-0.7,0-1.3,0-2.2,0
		c0.4-2.2-0.1-4.2-1.6-5.9c-1.5-1.7-3.6-2.2-5.8-2.2c-0.2,0.3-0.5,0.6-0.5,0.9c0,4.5,0,9,0,13.5c0,0.3,0.3,0.6,0.5,0.9
		c3.3-0.2,6.5-0.2,9.8-0.5c1-0.1,2-0.8,2.8-1.5c1.3-1.2,2.6-2.4,3.7-3.9c1.1-1.5,2.7-2.7,3.2-4.7c0.2-0.7,0.7-1.2,1.1-1.8
		c0.3-0.2,0.8-0.4,0.9-0.7c0.3-0.9,0.8-0.8,1.5-0.6c0,5,0,10,0,15.1c-14.7,0-29.3,0-43.8,0c0-0.4,0-0.9,0-1.4c1.4,0,3,0.2,4.4-0.1
		c1-0.2,1.8-0.8,2.1-1.8c0.1-0.1,0.1-0.2,0.2-0.3c0-0.1,0-0.1,0-0.2c0.1-0.3,0.4-0.6,0.4-0.8c0-8.3,0-16.7,0-25
		c0-0.3-0.3-0.6-0.5-0.9c-0.5-1.4-1.4-2.2-3-2.2c-1.2,0-2.4-0.3-3.6-0.4c0-0.3,0-0.7,0-1.2c0.5,0,0.9,0,1.4,0
		c0.4,0.1,0.9,0.4,1.3,0.4c7.5,0,15.1,0,22.6,0C147.4,59.8,147.7,59.7,147.9,59.6z"/>
	<path class="st0" d="M172.6,77.2c0.6,0,1.2,0,1.5,0c1.3,2.8,2.6,5.6,4,8.2c0.5,1,1.5,2.1,3,3.4c1,0.9,3,2.6,6.2,3.6
		c1.6,0.5,4.1,0.6,6.9,0.2c1.1-0.1,2.9-1.7,3-2.6c0.1-0.9,0.1-2-0.3-2.8c-0.4-0.8-1.2-1.3-2-1.8c-2.4-1.3-5-1.9-7.5-2.7
		c-2.3-0.7-4.5-1.8-6.8-2.8c-2-0.9-4-1.7-5.5-3.4c-2-2.2-2.5-4.9-2.1-7.8c0.6-3.5,2.8-5.8,5.9-7.5c3.1-1.7,6.4-2.5,9.8-2.3
		c1.6,0.1,3.2,0.7,4.7,1.3c1.7,0.6,3.4,1.4,5.1,2.1c0.6,0.3,1.2,0.6,1.8,0.2c0.5-0.3,0.9-0.9,1-1.6c0-0.6,0-1.3,0-2.1
		c0.8,0,1.5,0,2.3,0c0,4.3,0,8.5,0,12.8c0,0-0.1,0.1-0.1,0.1c-0.5,0.1-1.2,0.4-1.7,0.2c-0.5-0.2-0.8-1.3-1-1.8
		c-0.6-1.4-1.5-2.9-2.5-4c-1.5-1.8-3.3-3.4-5.5-4.4c-2.4-1.1-5.2-1.4-7.8-1c-1.7,0.3-3,1.3-3.3,2.7c-0.2,0.9,0.1,1.8,0.2,2.1
		c0.5,1.2,1.9,3,13.2,6.2c1.1,0.3,2.9,0.8,5.1,2c1.5,0.8,2.7,1.7,4.1,3.1c1,1,1.3,2.3,1.8,3.5c0.3,0.6,0.4,1.2,0.5,1.8
		c0.3,2.3-0.5,4.3-0.9,5.1c-2.8,5.8-10.5,7.1-11.2,7.2c-1.7,0.3-3.1,0.2-3.8,0.2c-3.2-0.2-6.6-1.4-8.9-2.8c-0.9-0.6-1.8-1-2.7-1.5
		c-0.7-0.4-1.4-0.9-2.2-0.8c-0.6,0.1-1.2,0.5-1.4,1.1c-0.4,0.9-0.5,2-0.6,3c-0.2,1.6-1.4,0.8-2.2,1C172.5,89,172.5,83.1,172.6,77.2z
		"/>
	<path class="st0" d="M250.4,59.5c0,0.2,0,0.3,0,0.5c-0.8,0-1.2,0.1-0.7,1c0.2,0.3,0.2,0.7,0.2,1c0,3,0,5.9,0,8.9c0,0.7,0,1.5,0,2.2
		c0,0.4-0.1,1-0.2,1.1c-0.4,0.1-0.9-0.1-1.3-0.2c-0.2,0-0.3-0.1-0.4-0.1c-0.6-1.5-1.2-3-1.9-4.5c-0.8-1.6-1.5-3.4-2.7-4.6
		c-1.9-1.9-4.1-3.5-7.1-3.4c-2.7,0.1-4.7,1.2-6.2,3.4c-1.4,2-1.9,4.3-2.4,6.6c-0.1,0.5-0.2,1-0.3,1.5c-0.1,0.2-0.4,0.4-0.4,0.6
		c0,1.8,0,3.7,0,5.5c0,0.2,0.3,0.4,0.4,0.6c0.3,1.3,0.7,2.6,1,3.9c0.2,0.7,0.3,1.5,0.6,2.1c1,2,1.9,4,4.1,5.2
		c2.5,1.4,4.8,1.4,7.5,0.7c2.1-0.6,4-1.6,5.2-3.2c1.3-1.9,2.8-3.8,2.9-6.3c0-0.2,0-0.4,0.1-0.6c0.1-0.2,0.2-0.3,0.3-0.5
		c0.6,0.1,1.1,0.2,1.8,0.3c0.1,1.8,0,3.5-1.3,5c-0.4,0.4-0.7,1-0.9,1.6c-0.3,1.4-1.5,2-2.4,2.8c-0.8,0.8-1.9,1.5-3.1,2.1
		c-3.8,1.9-7.8,2.4-12,2.2c-2.1-0.1-4.3-0.7-6.4-1.2c-3-0.7-5.6-2.2-8-4.3c-2-1.7-3.6-3.6-4.5-6.1c-0.3-0.9-0.5-1.9-0.7-2.9
		c0.1-0.2,0.4-0.4,0.3-0.6c-0.1-1.1-0.2-2.3-0.3-3.4c-0.1-0.4-0.3-0.7-0.4-1.1c0-0.2,0-0.3,0-0.5c0,0,0.1-0.1,0.1-0.1
		c0-0.1,0-0.1-0.1-0.2c0.2-0.8,0.5-1.6,0.6-2.4c0.4-2.7,1.9-4.7,3.7-6.6c2.7-3,6.1-4.7,10-5.6c3-0.7,6-1.2,9.1-0.9
		c1.7,0.2,3.5,0.5,5.2,1c0.9,0.3,1.8,0.9,2.7,1.3c1.1,0.5,2.1,1.2,3.2,1.4c0.5,0.1,1.3-0.7,1.8-1.2c0.4-0.4,0.4-1,0.6-1.6
		C248.9,59.8,249.6,59.7,250.4,59.5z"/>
	<path class="st1" d="M31.3,95.2c1.6,1.8,3.2,3.5,4.8,5.2c-6.2,6.4-12.4,13-18.6,19.5c-1.6-1.7-3.2-3.4-4.9-5.1
		C18.9,108.2,25.2,101.7,31.3,95.2z"/>
	<path class="st2" d="M50.6,92.7c-0.2,0.1-0.4,0.2-0.5,0.3c-0.2,0.2-0.3,0.4-0.4,0.6c0.2,0.1,0.3,0.3,0.5,0.3c0.4,0.1,0.9,0,1.3,0
		c22.2,0,44.4,0,66.7,0c0.4,0,0.8,0,1.2,0c-0.3,0.1-0.5,0.3-0.8,0.3c-22.9,0-45.8,0-68.7,0c-0.1,0-0.2,0-0.4,0c0-0.4,0-0.8,0-1.3
		C49.9,92.7,50.3,92.7,50.6,92.7z"/>
	<path class="st3" d="M97.5,91.5c-0.1-0.3-0.4-0.6-0.4-1c0-9.1,0-18.1,0-27.2c0-0.3,0.3-0.7,0.5-1c0,9.2,0,18.5,0,27.7
		C97.5,90.6,97.5,91.1,97.5,91.5z"/>
	<path class="st4" d="M164.8,73.8c-0.3,0-0.6,0-0.9,0c0.2-0.6,0.4-1.3,0.5-1.9c0-3.6,0-7.2,0-10.9c0-0.8-0.3-1.1-1.1-1.1
		c-3.9,0-7.7,0-11.6,0c-0.4,0-0.8-0.3-1.2-0.4c4.7,0,9.4,0,14.2,0"/>
	<path class="st5" d="M128.5,63.4c0.2,0.3,0.5,0.6,0.5,0.9c0,8.3,0,16.7,0,25c0,0.3-0.3,0.6-0.4,0.8c0-8.2,0-16.4,0-24.6
		C128.6,64.8,128.5,64.1,128.5,63.4z"/>
	<path class="st6" d="M147.2,60c-7.5,0-15.1,0-22.6,0c-0.4,0-0.9-0.3-1.3-0.4c8,0,15.9,0,23.9,0C147.2,59.7,147.2,59.8,147.2,60z"/>
	<path class="st5" d="M97.5,59.6c-0.4,0.1-0.8,0.4-1.2,0.4c-6,0-11.9,0-17.9,0c-0.4,0-0.9,0-1.5,0c0.4,0.4,0.7,0.7,1,0.9
		c-0.4,0-0.9,0-1.4,0c0-0.4,0-0.8,0-1.4C83.5,59.6,90.5,59.6,97.5,59.6z"/>
	<path class="st7" d="M248,73.9c0.1,0,0.3,0.1,0.4,0.1c0.4,0.1,0.9,0.2,1.3,0.2c0.1,0,0.2-0.7,0.2-1.1c0-0.7,0-1.5,0-2.2
		c0-3,0-5.9,0-8.9c0-0.3,0-0.7-0.2-1c-0.6-0.9-0.1-1,0.7-1c0,4.9,0,9.8,0,14.7c-0.6,0-1.3,0-2,0C248.3,74.5,248.1,74.2,248,73.9z"/>
	<path class="st3" d="M142.9,92.5c-0.2-0.3-0.5-0.6-0.5-0.9c0-4.5,0-9,0-13.5c0-0.3,0.3-0.6,0.5-0.9
		C142.9,82.3,142.9,87.4,142.9,92.5z"/>
	<path class="st8" d="M82.9,63.4c0.1,0.4,0.3,0.7,0.3,1.1c0,8.2,0,16.4,0,24.6c0,0.4-0.2,0.7-0.3,1.1C82.9,81.2,82.9,72.3,82.9,63.4
		z"/>
	<path class="st5" d="M142.9,75.3c-0.1-0.3-0.4-0.6-0.4-0.8c0-3.1,0-6.2,0-9.3c0-0.3,0.3-0.6,0.4-0.8
		C142.9,68,142.9,71.6,142.9,75.3z"/>
	<path class="st2" d="M172.6,77.2c0,5.9,0,11.7,0,17.6c-0.1-0.3-0.2-0.5-0.2-0.8c0-5.3,0-10.7,0-16
		C172.3,77.8,172.5,77.5,172.6,77.2z"/>
	<path class="st8" d="M33.9,93.4c0.4,0.2,0.8,0.5,1.2,0.5c3.5,0,7,0,10.5,0c0.4,0,0.8-0.2,1.3-0.3c-0.3-0.3-0.6-0.6-0.9-0.9
		c0.4,0,0.7,0,1.1,0c0,0.5,0,0.9,0,1.4c-4.5,0-8.9,0-13.7,0C33.6,93.8,33.7,93.6,33.9,93.4z"/>
	<path class="st7" d="M211.3,75.3c0.1,0.4,0.4,0.7,0.4,1.1c0.2,1.1,0.3,2.3,0.3,3.4c0,0.2-0.2,0.4-0.3,0.6
		C211.6,78.7,211.4,77,211.3,75.3z"/>
	<path class="st8" d="M227.5,79.6c-0.1-0.2-0.4-0.4-0.4-0.6c0-1.8,0-3.7,0-5.5c0-0.2,0.3-0.4,0.4-0.6
		C227.5,75.1,227.5,77.4,227.5,79.6z"/>
	<path class="st7" d="M250.4,59.5c-0.8,0.2-1.5,0.3-2.3,0.5c0.2-0.3,0.5-0.9,0.7-0.9C249.3,59.2,250.1,58.5,250.4,59.5z"/>
	<path class="st5" d="M78.4,60.9c0.7-0.7,1.1-0.6,1.4,0.2C79.3,61.1,78.9,61,78.4,60.9z"/>
	<path class="st5" d="M142.9,63.8c-0.6-0.3-0.6-0.6,0-1C142.9,63.2,142.9,63.5,142.9,63.8z"/>
	<path class="st4" d="M147.2,60c0-0.1,0-0.3,0-0.4c0.2,0,0.5,0,0.7,0C147.7,59.7,147.4,59.8,147.2,60z"/>
	<path class="st9" d="M58.4,61.9c0-0.1,0-0.2-0.1-0.2c0.1,0,0.2-0.1,0.4-0.1C58.6,61.7,58.5,61.8,58.4,61.9z"/>
	<path class="st7" d="M211.3,74.6c0,0.1,0.1,0.1,0.1,0.2c0,0,0,0-0.1,0.1C211.2,74.7,211.2,74.7,211.3,74.6z"/>
	<path class="st5" d="M128.6,90.3c-0.1,0.1-0.1,0.2-0.2,0.3C128.4,90.5,128.5,90.4,128.6,90.3z"/>
	<path class="st8" d="M43.5,81.7c2.7,0,5.4,0,8.1,0.1C51,81.8,50.3,82,49.7,82c-1.7,0-3.4,0-5.1,0C44.2,82,43.9,81.8,43.5,81.7z"/>
</g>
<path class="st10" d="M56.4,58.9c-0.7-0.1-1.7-3.8-0.3-7.1c1.6-3.6,4.7-3.2,6.8-7.3c1.4-2.6,1-4.7,1.8-4.8c0.8-0.1,2.1,2.7,1.8,5.3
	c-0.3,1.9-1.3,3.2-2,4c-1.4,1.7-2.3,1.8-3.8,3C57.3,55.1,57.2,59.1,56.4,58.9z"/>
<path class="st11" d="M52.8,58.9C51.9,59,48.2,53,50,47.1c1.6-5.1,5.8-5,8.9-11.5c2.5-5.1,1.8-9.2,3-9.3c1.2-0.1,2.7,4.1,2.5,7.8
	c-0.2,3.5-1.9,6.3-2.3,7c-0.5,0.8-0.9,1.4-1.4,1.9c-1.8,2.1-3.3,3.3-3.8,3.7C52.9,50,54.1,58.8,52.8,58.9z"/>
<path class="st11" d="M46.6,58.9c-1.5-0.2-6.4-11.2-4.6-21.1C44,27,50.2,27.2,52.9,14.6C54.6,6.5,53.3,0.3,54.7,0
	C56-0.3,59.5,7.3,60,15.3c0.4,5.3-0.7,8.8-1,9.6c-0.9,2.6-2.1,4.5-3.4,6.6c-2.1,3.3-4,5.2-4.5,6.1C45.3,47.1,48.2,59.1,46.6,58.9z"
	/>
<path class="st12" d="M218.2,76.3"/>
</svg>
